# xmcd
#
# Track frame offsets:
#	150
#	14575
#	31406
#	48949
#	66174
#	82399
#	99729
#	115753
#	131010
#	159962
#	173813
#	190901
#	207389
#	221521
#	242086
#	257243
#	272044
#	286770
#
# Disc length: 4031 seconds
#
# Revision: 0
# Processed by: cddbd v1.5.1PL0 Copyright (c) Steve Scherf et al.
# Submitted via: dBpowerAMP V4.0
#
DISCID=0b0fbd12
DTITLE=Various Artist - Funny party après ski hits volume 1 cd1
DYEAR=1900
DGENRE=Acid Jazz
TTITLE0=Jody Bernal - Que Si Que No
TTITLE1=Parla and Pardoux - Liberte
TTITLE2=Zware Jongens - Stil...
TTITLE3=Dj Sjakie - Ik was het niet...
TTITLE4=Hans van Seggelen - Party Time (Laat die kontjes draaien)
TTITLE5=The Mackenzie - All I Need
TTITLE6=Altijd Lazarus - Aja Jippia
TTITLE7=Cooldown Cafe Ft. Dj Steff - Hey Baby
TTITLE8=Arrow - Hot Hot Hot
TTITLE9=Party Boom - Boom The Party
TTITLE10=Rob Van Holland - Ik voel me zorba de griek
TTITLE11=10 Dance - Lik maar aan me lolly
TTITLE12=Rumba Tres - Baila Mi Rumba
TTITLE13=Michael Mcclay - Matador
TTITLE14=Ali Jordaan - Kleine vogel
TTITLE15=Kabouterdansers - Kabouterdans
TTITLE16=Cj Boriz Pers. Henkie hengel - M´n Vissershoed
TTITLE17=Party Boy´s - Een bossie rode rozen
EXTD=
EXTT0=
EXTT1=
EXTT2=
EXTT3=
EXTT4=
EXTT5=
EXTT6=
EXTT7=
EXTT8=
EXTT9=
EXTT10=
EXTT11=
EXTT12=
EXTT13=
EXTT14=
EXTT15=
EXTT16=
EXTT17=
PLAYORDER=
